/* XPM */
static char *blinka16[] = {
/* width height ncolors chars_per_pixel */
"16 16 7 1",
/* colors */
"0 c None",
"1 c #8428bc",
"2 c #ff89bc",
"3 c #7beffe",
"4 c #51395f",
"5 c #ffffff",
"6 c #0736a0",
/* pixels */
"0000001111000000",
"0000011153100000",
"0000011156110000",
"0000011111140000",
"0000011120002000",
"0000001113000000",
"0000000111200000",
"0000000011330000",
"0000000001122000",
"0000111144133000",
"0003232324112200",
"0011111444113300",
"0032323234112200",
"1111114444443300",
"1111111111144401",
"2323232321111110"
