/* XPM */
static char *blinka12[] = {
/* width height ncolors chars_per_pixel */
"12 12 7 1",
/* colors */
"0 c None",
"1 c #8428bc",
"2 c #ff89bc",
"3 c #7beffe",
"4 c #51395f",
"5 c #ffffff",
"6 c #0736a0",
/* pixels */
"000001110000",
"000011531000",
"000011561100",
"000011111400",
"000001120020",
"000000113000",
"000000112000",
"000111441300",
"002323241200",
"011114441300",
"323232341201",
"111111444410"
